<svg width="25" height="25" viewBox="0 0 25 25" fill="none" xmlns="http://www.w3.org/2000/svg">
<rect width="25" height="25" fill="white"/>
<path d="M12.83 9L16 12.16V12C16 11.2044 15.6839 10.4413 15.1213 9.87868C14.5587 9.31607 13.7956 9 13 9H12.83ZM8.53 9.8L10.08 11.35C10.03 11.56 10 11.77 10 12C10 12.7956 10.3161 13.5587 10.8787 14.1213C11.4413 14.6839 12.2044 15 13 15C13.22 15 13.44 14.97 13.65 14.92L15.2 16.47C14.53 16.8 13.79 17 13 17C11.6739 17 10.4021 16.4732 9.46447 15.5355C8.52678 14.5979 8 13.3261 8 12C8 11.21 8.2 10.47 8.53 9.8ZM3 4.27L5.28 6.55L5.73 7C4.08 8.3 2.78 10 2 12C3.73 16.39 8 19.5 13 19.5C14.55 19.5 16.03 19.2 17.38 18.66L17.81 19.08L20.73 22L22 20.73L4.27 3M13 7C14.3261 7 15.5979 7.52678 16.5355 8.46447C17.4732 9.40215 18 10.6739 18 12C18 12.64 17.87 13.26 17.64 13.82L20.57 16.75C22.07 15.5 23.27 13.86 24 12C22.27 7.61 18 4.5 13 4.5C11.6 4.5 10.26 4.75 9 5.2L11.17 7.35C11.74 7.13 12.35 7 13 7Z" fill="#17C979"/>
</svg>
