<svg width="25" height="25" viewBox="0 0 25 25" fill="none" xmlns="http://www.w3.org/2000/svg">
<rect width="25" height="25" fill="white"/>
<path d="M13 9C12.2044 9 11.4413 9.31607 10.8787 9.87868C10.3161 10.4413 10 11.2044 10 12C10 12.7956 10.3161 13.5587 10.8787 14.1213C11.4413 14.6839 12.2044 15 13 15C13.7956 15 14.5587 14.6839 15.1213 14.1213C15.6839 13.5587 16 12.7956 16 12C16 11.2044 15.6839 10.4413 15.1213 9.87868C14.5587 9.31607 13.7956 9 13 9ZM13 17C11.6739 17 10.4021 16.4732 9.46447 15.5355C8.52678 14.5979 8 13.3261 8 12C8 10.6739 8.52678 9.40215 9.46447 8.46447C10.4021 7.52678 11.6739 7 13 7C14.3261 7 15.5979 7.52678 16.5355 8.46447C17.4732 9.40215 18 10.6739 18 12C18 13.3261 17.4732 14.5979 16.5355 15.5355C15.5979 16.4732 14.3261 17 13 17ZM13 4.5C8 4.5 3.73 7.61 2 12C3.73 16.39 8 19.5 13 19.5C18 19.5 22.27 16.39 24 12C22.27 7.61 18 4.5 13 4.5Z" fill="#17C979"/>
</svg>
