<svg width="24" height="24" viewBox="0 0 24 24" fill="none" xmlns="http://www.w3.org/2000/svg">
<path d="M2.4 3.44444H6L8.4 1H15.6L18 3.44444H21.6C22.2365 3.44444 22.847 3.70198 23.2971 4.16041C23.7471 4.61883 24 5.24058 24 5.88889V20.5556C24 21.2039 23.7471 21.8256 23.2971 22.284C22.847 22.7425 22.2365 23 21.6 23H2.4C1.76348 23 1.15303 22.7425 0.702944 22.284C0.252856 21.8256 0 21.2039 0 20.5556V5.88889C0 5.24058 0.252856 4.61883 0.702944 4.16041C1.15303 3.70198 1.76348 3.44444 2.4 3.44444ZM12 7.11111C10.4087 7.11111 8.88258 7.75496 7.75736 8.90101C6.63214 10.0471 6 11.6015 6 13.2222C6 14.843 6.63214 16.3974 7.75736 17.5434C8.88258 18.6895 10.4087 19.3333 12 19.3333C13.5913 19.3333 15.1174 18.6895 16.2426 17.5434C17.3679 16.3974 18 14.843 18 13.2222C18 11.6015 17.3679 10.0471 16.2426 8.90101C15.1174 7.75496 13.5913 7.11111 12 7.11111ZM12 9.55556C12.9548 9.55556 13.8705 9.94186 14.5456 10.6295C15.2207 11.3171 15.6 12.2498 15.6 13.2222C15.6 14.1947 15.2207 15.1273 14.5456 15.8149C13.8705 16.5026 12.9548 16.8889 12 16.8889C11.0452 16.8889 10.1295 16.5026 9.45442 15.8149C8.77928 15.1273 8.4 14.1947 8.4 13.2222C8.4 12.2498 8.77928 11.3171 9.45442 10.6295C10.1295 9.94186 11.0452 9.55556 12 9.55556Z" fill="#2B3144"/>
</svg>
