<svg width="20" height="20" viewBox="0 0 20 20" fill="none" xmlns="http://www.w3.org/2000/svg">
<rect width="20" height="20" fill="white"/>
<path d="M2 3H5L7 1H13L15 3H18C18.5304 3 19.0391 3.21071 19.4142 3.58579C19.7893 3.96086 20 4.46957 20 5V17C20 17.5304 19.7893 18.0391 19.4142 18.4142C19.0391 18.7893 18.5304 19 18 19H2C1.46957 19 0.960859 18.7893 0.585786 18.4142C0.210714 18.0391 0 17.5304 0 17V5C0 4.46957 0.210714 3.96086 0.585786 3.58579C0.960859 3.21071 1.46957 3 2 3ZM10 6C8.67392 6 7.40215 6.52678 6.46447 7.46447C5.52678 8.40215 5 9.67392 5 11C5 12.3261 5.52678 13.5979 6.46447 14.5355C7.40215 15.4732 8.67392 16 10 16C11.3261 16 12.5979 15.4732 13.5355 14.5355C14.4732 13.5979 15 12.3261 15 11C15 9.67392 14.4732 8.40215 13.5355 7.46447C12.5979 6.52678 11.3261 6 10 6ZM10 8C10.7956 8 11.5587 8.31607 12.1213 8.87868C12.6839 9.44129 13 10.2044 13 11C13 11.7956 12.6839 12.5587 12.1213 13.1213C11.5587 13.6839 10.7956 14 10 14C9.20435 14 8.44129 13.6839 7.87868 13.1213C7.31607 12.5587 7 11.7956 7 11C7 10.2044 7.31607 9.44129 7.87868 8.87868C8.44129 8.31607 9.20435 8 10 8Z" fill="#2B3144"/>
</svg>
