<svg width="24" height="24" viewBox="0 0 24 24" fill="none" xmlns="http://www.w3.org/2000/svg">
<path d="M5.57143 21.625V6.5H18.4286V21.625C18.4286 22.0833 18.1714 23 17.1429 23H6.85714C6.42857 23 5.57143 22.725 5.57143 21.625Z" fill="#2B3144"/>
<path d="M15.8571 1L17.1429 2.375H6.85714L8.14286 1H15.8571Z" fill="#2B3144"/>
<path d="M3 2.375H6.85714M21 2.375H17.1429M17.1429 2.375L15.8571 1H8.14286L6.85714 2.375M17.1429 2.375H6.85714M5.57143 6.5C5.57143 11.0833 5.57143 20.525 5.57143 21.625C5.57143 22.725 6.42857 23 6.85714 23C9.85714 23 16.1143 23 17.1429 23C18.1714 23 18.4286 22.0833 18.4286 21.625V6.5H5.57143Z" stroke="#2B3144"/>
</svg>
