<svg width="24" height="24" viewBox="0 0 24 24" fill="none" xmlns="http://www.w3.org/2000/svg">
<path d="M6.75 2C5.24011 2 4 3.24011 4 4.75V19.25C4 20.7599 5.24011 22 6.75 22H17.25C18.7599 22 20 20.7599 20 19.25V4.75C20 3.24011 18.7599 2 17.25 2H6.75ZM6.75 3.5H17.25C17.9491 3.5 18.5 4.05088 18.5 4.75V19.25C18.5 19.9491 17.9491 20.5 17.25 20.5H6.75C6.05088 20.5 5.5 19.9491 5.5 19.25V4.75C5.5 4.05088 6.05088 3.5 6.75 3.5ZM8.23047 5.49902C7.56007 5.49902 7 6.06007 7 6.73047V9.76953C7 10.4399 7.56007 11 8.23047 11H15.7695C16.4399 11 16.9997 10.4401 17.001 9.77051V6.73047C17.001 6.06007 16.4399 5.49902 15.7695 5.49902H8.23047ZM8.5 6.99902H15.501V9.5H8.5V6.99902ZM8.25 12.5C7.55964 12.5 7 13.0596 7 13.75C7 14.4403 7.55964 15 8.25 15C8.94035 15 9.5 14.4403 9.5 13.75C9.5 13.0596 8.94035 12.5 8.25 12.5ZM12 12.5C11.3096 12.5 10.75 13.0596 10.75 13.75C10.75 14.4403 11.3096 15 12 15C12.6903 15 13.25 14.4403 13.25 13.75C13.25 13.0596 12.6903 12.5 12 12.5ZM15.75 12.5C15.0595 12.5 14.5 13.0595 14.5 13.75V17.25C14.5 17.9405 15.0595 18.5 15.75 18.5C16.4405 18.5 17 17.9405 17 17.25V13.75C17 13.0595 16.4405 12.5 15.75 12.5ZM8.25 16C7.55964 16 7 16.5596 7 17.25C7 17.9403 7.55964 18.5 8.25 18.5C8.94035 18.5 9.5 17.9403 9.5 17.25C9.5 16.5596 8.94035 16 8.25 16ZM12 16C11.3096 16 10.75 16.5596 10.75 17.25C10.75 17.9403 11.3096 18.5 12 18.5C12.6903 18.5 13.25 17.9403 13.25 17.25C13.25 16.5596 12.6903 16 12 16Z" fill="url(#paint0_linear_254_3101)"/>
<defs>
<linearGradient id="paint0_linear_254_3101" x1="20" y1="12" x2="4" y2="12" gradientUnits="userSpaceOnUse">
<stop stop-color="#17C979"/>
<stop offset="1" stop-color="#03C09E"/>
</linearGradient>
</defs>
</svg>
