<svg width="24" height="24" viewBox="0 0 24 24" fill="none" xmlns="http://www.w3.org/2000/svg">
<path d="M11.83 8L15 11.16V11C15 10.2044 14.6839 9.44129 14.1213 8.87868C13.5587 8.31607 12.7956 8 12 8H11.83ZM7.53 8.8L9.08 10.35C9.03 10.56 9 10.77 9 11C9 11.7956 9.31607 12.5587 9.87868 13.1213C10.4413 13.6839 11.2044 14 12 14C12.22 14 12.44 13.97 12.65 13.92L14.2 15.47C13.53 15.8 12.79 16 12 16C10.6739 16 9.40215 15.4732 8.46447 14.5355C7.52678 13.5979 7 12.3261 7 11C7 10.21 7.2 9.47 7.53 8.8ZM2 3.27L4.28 5.55L4.73 6C3.08 7.3 1.78 9 1 11C2.73 15.39 7 18.5 12 18.5C13.55 18.5 15.03 18.2 16.38 17.66L16.81 18.08L19.73 21L21 19.73L3.27 2M12 6C13.3261 6 14.5979 6.52678 15.5355 7.46447C16.4732 8.40215 17 9.67392 17 11C17 11.64 16.87 12.26 16.64 12.82L19.57 15.75C21.07 14.5 22.27 12.86 23 11C21.27 6.61 17 3.5 12 3.5C10.6 3.5 9.26 3.75 8 4.2L10.17 6.35C10.74 6.13 11.35 6 12 6Z" fill="url(#paint0_linear_218_2798)"/>
<defs>
<linearGradient id="paint0_linear_218_2798" x1="23" y1="11.5" x2="1" y2="11.5" gradientUnits="userSpaceOnUse">
<stop stop-color="#17C979"/>
<stop offset="1" stop-color="#03C09E"/>
</linearGradient>
</defs>
</svg>
