<svg width="24" height="24" viewBox="0 0 24 24" fill="none" xmlns="http://www.w3.org/2000/svg">
<path d="M12 8C11.2044 8 10.4413 8.31607 9.87868 8.87868C9.31607 9.44129 9 10.2044 9 11C9 11.7956 9.31607 12.5587 9.87868 13.1213C10.4413 13.6839 11.2044 14 12 14C12.7956 14 13.5587 13.6839 14.1213 13.1213C14.6839 12.5587 15 11.7956 15 11C15 10.2044 14.6839 9.44129 14.1213 8.87868C13.5587 8.31607 12.7956 8 12 8ZM12 16C10.6739 16 9.40215 15.4732 8.46447 14.5355C7.52678 13.5979 7 12.3261 7 11C7 9.67392 7.52678 8.40215 8.46447 7.46447C9.40215 6.52678 10.6739 6 12 6C13.3261 6 14.5979 6.52678 15.5355 7.46447C16.4732 8.40215 17 9.67392 17 11C17 12.3261 16.4732 13.5979 15.5355 14.5355C14.5979 15.4732 13.3261 16 12 16ZM12 3.5C7 3.5 2.73 6.61 1 11C2.73 15.39 7 18.5 12 18.5C17 18.5 21.27 15.39 23 11C21.27 6.61 17 3.5 12 3.5Z" fill="url(#paint0_linear_218_2799)"/>
<defs>
<linearGradient id="paint0_linear_218_2799" x1="23" y1="11" x2="1" y2="11" gradientUnits="userSpaceOnUse">
<stop stop-color="#17C979"/>
<stop offset="1" stop-color="#03C09E"/>
</linearGradient>
</defs>
</svg>
