<svg width="24" height="24" viewBox="0 0 24 24" fill="none" xmlns="http://www.w3.org/2000/svg">
<path d="M12 2.00001C9.27835 2.00001 6.80593 3.09366 4.99999 4.86426V4C5.00368 3.72987 4.89794 3.46974 4.70682 3.27881C4.5157 3.08787 4.25546 2.98238 3.98534 2.98633C3.43344 2.99442 2.99244 3.4481 2.99999 4V7.5C3.00066 8.03624 3.42414 8.47653 3.95995 8.49805C4.10823 8.53306 4.26254 8.53372 4.41112 8.5H7.49998C7.86061 8.5051 8.19606 8.31563 8.37787 8.00413C8.55967 7.69263 8.55967 7.30737 8.37787 6.99587C8.19606 6.68437 7.86062 6.4949 7.49998 6.5H6.19432C7.65058 4.96228 9.70776 4 12 4C16.43 4 20 7.56995 20 12C20 16.43 16.43 20 12 20C7.56994 20 3.99998 16.43 3.99998 12C4.00508 11.6394 3.81561 11.3039 3.50411 11.1221C3.19261 10.9403 2.80735 10.9403 2.49585 11.1221C2.18435 11.3039 1.99488 11.6394 1.99998 12C1.99998 17.5109 6.48902 22 12 22C17.5109 22 22 17.5109 22 12C22 6.48904 17.5109 2.00001 12 2.00001ZM11.9853 6.48633C11.4334 6.49442 10.9924 6.9481 11 7.5V13C11 13.5523 11.4477 13.9999 12 14H15.5C15.8606 14.0051 16.1961 13.8156 16.3779 13.5041C16.5597 13.1926 16.5597 12.8074 16.3779 12.4959C16.1961 12.1844 15.8606 11.9949 15.5 12H13V7.5C13.0037 7.22987 12.8979 6.96974 12.7068 6.7788C12.5157 6.58787 12.2555 6.48238 11.9853 6.48633Z" fill="url(#paint0_linear_358_2823)"/>
<defs>
<linearGradient id="paint0_linear_358_2823" x1="22" y1="12" x2="1.99988" y2="12" gradientUnits="userSpaceOnUse">
<stop stop-color="#17C979"/>
<stop offset="1" stop-color="#03C09E"/>
</linearGradient>
</defs>
</svg>
