<svg width="24" height="24" viewBox="0 0 24 24" fill="none" xmlns="http://www.w3.org/2000/svg">
<path d="M12 2C8.73209 2 5.82559 3.57458 4.00001 6.00586V4.25C4.00292 4.04719 3.92357 3.85185 3.78006 3.70852C3.63654 3.56519 3.4411 3.48609 3.23829 3.48926C2.82446 3.49572 2.49407 3.83616 2.50001 4.25V7.75C2.50005 8.16419 2.83582 8.49996 3.25001 8.5H6.75001C7.02049 8.50382 7.27207 8.36172 7.40843 8.12809C7.54478 7.89447 7.54478 7.60552 7.40843 7.3719C7.27207 7.13828 7.02049 6.99617 6.75001 7H5.12501C6.66955 4.8791 9.1696 3.5 12 3.5C16.7032 3.5 20.5 7.29685 20.5 12C20.5 16.7031 16.7032 20.5 12 20.5C7.29687 20.5 3.50001 16.7031 3.50001 12C3.50384 11.7295 3.36173 11.4779 3.12811 11.3416C2.89448 11.2052 2.60554 11.2052 2.37192 11.3416C2.13829 11.4779 1.99619 11.7295 2.00001 12C2.00001 17.5138 6.48616 22 12 22C17.5139 22 22 17.5138 22 12C22 6.48614 17.5139 2 12 2ZM11.7383 6.48926C11.3245 6.49572 10.9941 6.83616 11 7.25V13.25C11 13.6642 11.3358 14 11.75 14H15.75C16.0205 14.0038 16.2721 13.8617 16.4084 13.6281C16.5448 13.3945 16.5448 13.1055 16.4084 12.8719C16.2721 12.6383 16.0205 12.4962 15.75 12.5H12.5V7.25C12.5029 7.04719 12.4236 6.85185 12.2801 6.70852C12.1365 6.56519 11.9411 6.48609 11.7383 6.48926Z" fill="url(#paint0_linear_358_2819)"/>
<defs>
<linearGradient id="paint0_linear_358_2819" x1="22" y1="12" x2="1.99994" y2="12" gradientUnits="userSpaceOnUse">
<stop stop-color="#17C979"/>
<stop offset="1" stop-color="#03C09E"/>
</linearGradient>
</defs>
</svg>
