<svg width="24" height="24" viewBox="0 0 24 24" fill="none" xmlns="http://www.w3.org/2000/svg">
<path d="M11.9756 2.00011C11.8157 2.00557 11.6617 2.06203 11.5361 2.16125L4.42968 7.75988C3.52773 8.47069 3 9.55687 3 10.7052V20.2501C3 20.9319 3.5682 21.5001 4.25 21.5001H9.25C9.93179 21.5001 10.5 20.9319 10.5 20.2501V15.2501C10.5 15.1026 10.6025 15.0001 10.75 15.0001H13.25C13.3975 15.0001 13.5 15.1026 13.5 15.2501V20.2501C13.5 20.9319 14.0682 21.5001 14.75 21.5001H19.75C20.4318 21.5001 21 20.9319 21 20.2501V10.7052C21 9.55687 20.4722 8.4707 19.5703 7.75988L12.4639 2.16125C12.3252 2.05169 12.1522 1.99462 11.9756 2.00011ZM12 3.70519L18.6426 8.93859C19.1846 9.36577 19.5 10.0155 19.5 10.7052V20.0001H15V15.2501C15 14.2926 14.2075 13.5001 13.25 13.5001H10.75C9.79252 13.5001 9 14.2926 9 15.2501V20.0001H4.5V10.7052C4.5 10.0155 4.81537 9.36577 5.35742 8.93859L12 3.70519Z" fill="#17C979"/>
</svg>
