<svg width="24" height="24" viewBox="0 0 24 24" fill="none" xmlns="http://www.w3.org/2000/svg">
<g clip-path="url(#clip0_254_3077)">
<path d="M19.75 21.5H15.25C14.5595 21.5 14 20.9405 14 20.25V15.75C14 15.1975 13.5525 14.75 13 14.75H11C10.4475 14.75 10 15.1975 10 15.75V20.25C10 20.9405 9.4405 21.5 8.75 21.5H4.25C3.5595 21.5 3 20.9405 3 20.25V10.7065C3 9.557 3.527 8.471 4.4295 7.76L11.5355 2.1605C11.808 1.9465 12.192 1.9465 12.464 2.1605L19.571 7.76C20.4735 8.471 21 9.55649 21 10.7055V20.25C21 20.9405 20.4405 21.5 19.75 21.5Z" fill="url(#paint0_linear_254_3077)"/>
</g>
<defs>
<linearGradient id="paint0_linear_254_3077" x1="21" y1="11.75" x2="3" y2="11.75" gradientUnits="userSpaceOnUse">
<stop stop-color="#17C979"/>
<stop offset="1" stop-color="#03C09E"/>
</linearGradient>
<clipPath id="clip0_254_3077">
<rect width="24" height="24" fill="white"/>
</clipPath>
</defs>
</svg>
