<svg width="24" height="24" viewBox="0 0 24 24" fill="none" xmlns="http://www.w3.org/2000/svg">
<path d="M12 2C6.48603 2 2 6.48603 2 12C2 17.514 6.48603 22 12 22C17.514 22 22 17.514 22 12C22 6.48603 17.514 2 12 2ZM12 3.5C16.7033 3.5 20.5 7.29669 20.5 12C20.5 16.7033 16.7033 20.5 12 20.5C7.29669 20.5 3.5 16.7033 3.5 12C3.5 7.29669 7.29669 3.5 12 3.5ZM12 7C11.4477 7 11 7.44771 11 8C11 8.55228 11.4477 9 12 9C12.5523 9 13 8.55228 13 8C13 7.44771 12.5523 7 12 7ZM11.9883 10.4893C11.5744 10.4957 11.2441 10.8362 11.25 11.25V16.75C11.2462 17.0205 11.3883 17.2721 11.6219 17.4084C11.8555 17.5448 12.1445 17.5448 12.3781 17.4084C12.6117 17.2721 12.7538 17.0205 12.75 16.75V11.25C12.7529 11.0472 12.6736 10.8518 12.53 10.7085C12.3865 10.5652 12.1911 10.4861 11.9883 10.4893Z" fill="#17C979"/>
</svg>
