<svg width="24" height="24" viewBox="0 0 24 24" fill="none" xmlns="http://www.w3.org/2000/svg">
<path d="M3.75 2.5C2.51625 2.5 1.5 3.51625 1.5 4.75V5.75C1.5 6.43179 2.0682 7 2.75 7H4.5V18.25C4.5 20.036 5.96403 21.5 7.75 21.5H20.25C20.2913 21.4992 20.3324 21.4949 20.373 21.4873C21.5495 21.4213 22.5 20.4417 22.5 19.25V18.25C22.5 17.5682 21.9318 17 21.25 17H19.5V4.75C19.5 3.51625 18.4837 2.5 17.25 2.5H3.75ZM3.75 4H15.1533C15.0673 4.23724 15 4.4847 15 4.75V5.5H5.37304C5.29253 5.48677 5.21039 5.48677 5.12988 5.5H2.99999V4.75C2.99999 4.32675 3.32675 4 3.75 4ZM17.25 4C17.6732 4 18 4.32675 18 4.75V17.6269C17.9868 17.7075 17.9868 17.7896 18 17.8701V19.25C18 19.5153 18.0673 19.7628 18.1533 20H7.75C6.77497 20 6 19.225 6 18.25V7H15.25C15.9318 7 16.5 6.4318 16.5 5.75V4.75C16.5 4.32675 16.8267 4 17.25 4ZM8.75 9C8.47952 8.99617 8.22794 9.13828 8.09158 9.3719C7.95523 9.60553 7.95523 9.89447 8.09158 10.1281C8.22794 10.3617 8.47952 10.5038 8.75 10.5H15.25C15.5205 10.5038 15.7721 10.3617 15.9084 10.1281C16.0448 9.89447 16.0448 9.60552 15.9084 9.3719C15.7721 9.13828 15.5205 8.99617 15.25 9H8.75ZM8.75 12.5C8.47952 12.4962 8.22794 12.6383 8.09158 12.8719C7.95523 13.1055 7.95523 13.3945 8.09158 13.6281C8.22794 13.8617 8.47952 14.0038 8.75 14H15.25C15.5205 14.0038 15.7721 13.8617 15.9084 13.6281C16.0448 13.3945 16.0448 13.1055 15.9084 12.8719C15.7721 12.6383 15.5205 12.4962 15.25 12.5H8.75ZM8.75 16C8.47952 15.9962 8.22794 16.1383 8.09158 16.3719C7.95523 16.6055 7.95523 16.8945 8.09158 17.1281C8.22794 17.3617 8.47952 17.5038 8.75 17.5H15.25C15.5205 17.5038 15.7721 17.3617 15.9084 17.1281C16.0448 16.8945 16.0448 16.6055 15.9084 16.3719C15.7721 16.1383 15.5205 15.9962 15.25 16H8.75ZM19.5 18.5H21V19.25C21 19.6732 20.6732 20 20.25 20C19.8267 20 19.5 19.6732 19.5 19.25V18.5Z" fill="#17C979"/>
</svg>
